<svg xmlns="http://www.w3.org/2000/svg" class="w-5 h-5" fill="currentColor" viewBox="0 0 24 24">
    <path d="M12 .5C5.73.5.5 5.74.5 12.02c0 5.1 3.29 9.42 7.86 10.96.58.1.79-.26.79-.57v-2.03c-3.2.7-3.88-1.54-3.88-1.54-.53-1.36-1.29-1.73-1.29-1.73-1.06-.72.08-.71.08-.71 1.18.08 1.8 1.22 1.8 1.22 1.04 1.78 2.74 1.26 3.41.97.1-.76.41-1.26.74-1.55-2.56-.3-5.26-1.28-5.26-5.71 0-1.26.45-2.3 1.2-3.11-.12-.3-.52-1.5.11-3.12 0 0 .98-.31 3.2 1.2a11.14 11.14 0 0 1 5.83 0c2.22-1.51 3.2-1.2 3.2-1.2.63 1.63.23 2.83.11 3.12.75.81 1.2 1.85 1.2 3.11 0 4.44-2.7 5.41-5.27 5.7.42.36.78 1.08.78 2.18v3.24c0 .32.21.68.8.56A10.52 10.52 0 0 0 23.5 12C23.5 5.74 18.26.5 12 .5Z"/>
</svg>
